<svg width="645" height="620" viewBox="0 0 645 620" fill="none" xmlns="http://www.w3.org/2000/svg">
<mask id="path-1-inside-1_2244_713" fill="white">
<path d="M0 433.975C0 446.352 20.5096 453.227 30.5992 446.059C47.492 434.057 68.144 427 90.4443 427C147.084 427 193 472.916 193 529.556C193 551.856 185.943 572.508 173.941 589.401C166.773 599.49 173.648 620 186.025 620H633C639.627 620 645 614.627 645 608V12C645 5.37257 639.627 0 633 0H12C5.37256 0 0 5.37258 0 12V433.975Z"/>
</mask>
<path d="M0 433.975C0 446.352 20.5096 453.227 30.5992 446.059C47.492 434.057 68.144 427 90.4443 427C147.084 427 193 472.916 193 529.556C193 551.856 185.943 572.508 173.941 589.401C166.773 599.49 173.648 620 186.025 620H633C639.627 620 645 614.627 645 608V12C645 5.37257 639.627 0 633 0H12C5.37256 0 0 5.37258 0 12V433.975Z" fill="#050505"/>
<path d="M90.4443 427V426V426V427ZM193 529.556H194V529.556H193ZM173.941 589.401L174.756 589.98L173.941 589.401ZM30.5992 446.059L31.1784 446.874L30.5992 446.059ZM30.5992 446.059L30.0201 445.244C47.0765 433.125 67.9297 426 90.4443 426V427V428C68.3583 428 47.9076 434.988 31.1784 446.874L30.5992 446.059ZM90.4443 427V426C147.636 426 194 472.364 194 529.556H193H192C192 473.468 146.532 428 90.4443 428V427ZM193 529.556H194C194 552.07 186.875 572.924 174.756 589.98L173.941 589.401L173.126 588.822C185.012 572.092 192 551.642 192 529.556H193ZM186.025 620V619H633V620V621H186.025V620ZM645 608H644V12H645H646V608H645ZM633 0V1H12V0V-1H633V0ZM0 12H1V433.975H0H-1V12H0ZM12 0V1C5.92487 1 1 5.92487 1 12H0H-1C-1 4.8203 4.82031 -1 12 -1V0ZM633 620V619C639.075 619 644 614.075 644 608H645H646C646 615.18 640.18 621 633 621V620ZM173.941 589.401L174.756 589.98C171.429 594.664 171.291 601.936 173.591 608.136C175.898 614.355 180.45 619 186.025 619V620V621C179.223 621 174.149 615.39 171.716 608.832C169.276 602.255 169.285 594.227 173.126 588.822L173.941 589.401ZM645 12H644C644 5.92486 639.075 1 633 1V0V-1C640.18 -1 646 4.82029 646 12H645ZM30.5992 446.059L31.1784 446.874C25.7727 450.715 17.7449 450.724 11.1682 448.284C4.60956 445.851 -1 440.777 -1 433.975H0H1C1 439.55 5.64526 444.102 11.8638 446.409C18.0644 448.709 25.3362 448.571 30.0201 445.244L30.5992 446.059Z" fill="#282926" mask="url(#path-1-inside-1_2244_713)"/>
</svg>
