<svg width="323" height="79" viewBox="0 0 323 79" fill="none" xmlns="http://www.w3.org/2000/svg">
<g clip-path="url(#clip0_3790_1127)">
<path d="M218.286 71.6161H307.062V69.4724H219.162L149.433 0H-72.3475V2.14372H148.556L218.286 71.6161Z" fill="#D3ED31"/>
<path d="M142.819 53.3547H185.692L142.101 10.0039H99.2276L142.819 53.3547ZM180.592 51.2903H143.695L104.408 12.0682H141.304L180.592 51.2903Z" fill="#D3ED31"/>
<path d="M93.012 53.3547H135.886L92.3744 10.0039H49.5007L93.012 53.3547ZM130.706 51.2903H93.8089L54.5212 12.0682H91.4181L130.706 51.2903Z" fill="#D3ED31"/>
<path d="M43.1252 53.3547H85.999L42.4877 10.0039H-0.386055L43.1252 53.3547ZM80.8988 51.2903H44.0018L4.63448 12.0682H41.5314L80.8988 51.2903Z" fill="#D3ED31"/>
<path d="M-6.68141 53.3547H36.1924L-7.31893 10.0039H-50.1927L-6.68141 53.3547ZM31.0922 51.2903H-5.8048L-45.1722 12.0682H-8.27523L31.0922 51.2903Z" fill="#D3ED31"/>
<path d="M314.473 79.0004C319.175 79.0004 323 75.1894 323 70.5843C323 65.8999 319.175 62.0889 314.473 62.0889C309.771 62.0889 305.946 65.8999 305.946 70.5843C306.026 75.1894 309.851 79.0004 314.473 79.0004ZM314.473 64.2326C317.979 64.2326 320.848 67.0909 320.848 70.5843C320.848 74.0778 317.979 76.9361 314.473 76.9361C310.967 76.9361 308.098 74.0778 308.098 70.5843C308.098 67.0909 310.967 64.2326 314.473 64.2326Z" fill="#D3ED31"/>
</g>
<defs>
<clipPath id="clip0_3790_1127">
<rect width="323" height="79" fill="white" transform="matrix(-1 0 0 1 323 0)"/>
</clipPath>
</defs>
</svg>
