<svg width="84" height="84" viewBox="0 0 84 84" fill="none" xmlns="http://www.w3.org/2000/svg">
<g clip-path="url(#clip0_7035_272)">
<path d="M75.604 0.00545906L8.40978 0.000976582C3.77098 0.000667132 0.0100805 3.7609 0.00955569 8.39968L0.00195318 75.5938C0.00142834 80.2326 3.76149 83.9934 8.40027 83.9937L75.5944 83.9982C80.2332 83.9985 83.9941 80.2383 83.9947 75.5994L84.0022 8.40529C84.0028 3.7665 80.2428 0.00576851 75.604 0.00545906Z" fill="white"/>
<path d="M57.1757 43.4612C50.7224 43.4606 45.4915 48.6905 45.4909 55.1429C45.4903 61.5952 50.7205 66.8279 57.1738 66.8285C63.6271 66.829 68.857 61.5979 68.8574 55.1449C68.858 48.6919 63.6281 43.4618 57.1757 43.4612ZM26.8211 43.4593C20.3689 43.4591 15.1372 48.6883 15.1367 55.141C15.1361 61.5938 20.3668 66.8248 26.8192 66.8254C33.2714 66.8258 38.5034 61.5953 38.504 55.1429C38.5046 48.6907 33.2744 43.4599 26.8211 43.4593ZM53.6828 28.8568C53.6822 35.309 48.4514 40.5409 41.999 40.5403C35.5468 40.5397 30.3157 35.3071 30.3161 28.8547C30.3167 22.4024 35.5478 17.1718 42.0011 17.1724C48.4544 17.173 53.6834 22.4044 53.6828 28.8568Z" fill="#F06A69"/>
</g>
<defs>
<clipPath id="clip0_7035_272">
<rect width="84" height="84" fill="white"/>
</clipPath>
</defs>
</svg>
