<svg width="76" height="76" viewBox="0 0 76 76" fill="none" xmlns="http://www.w3.org/2000/svg">
<rect y="16.0468" width="62" height="62" rx="7.23333" transform="rotate(-15 0 16.0468)" fill="#D3ED31" stroke="url(#paint0_linear_5602_239)" stroke-width="2"/>
<g clip-path="url(#clip0_5602_239)">
<path d="M34.9164 26.599C34.3655 26.7467 33.7985 26.4193 33.6508 25.8684L32.953 23.2639C32.8054 22.713 33.1327 22.146 33.6837 21.9984C34.2346 21.8507 34.8016 22.1781 34.9492 22.729L35.6471 25.3335C35.7947 25.8844 35.4674 26.4514 34.9164 26.599Z" fill="#050505"/>
<path d="M44.6339 27.8775C44.3784 27.946 44.0968 27.9173 43.8501 27.7738C43.3557 27.4883 43.1863 26.8562 43.4718 26.3617L44.8201 24.0263C45.1056 23.5319 45.7377 23.3625 46.2321 23.648C46.7265 23.9335 46.8959 24.5656 46.6105 25.06L45.2621 27.3954C45.1186 27.6421 44.8894 27.8091 44.6339 27.8775Z" fill="#050505"/>
<path d="M53.2019 34.9548L50.5975 35.6527C50.0465 35.8003 49.4795 35.473 49.3319 34.922C49.1843 34.371 49.5116 33.8041 50.0626 33.6564L52.667 32.9586C53.218 32.811 53.785 33.1383 53.9326 33.6893C54.0802 34.2402 53.7529 34.8072 53.2019 34.9548Z" fill="#050505"/>
<path d="M51.6535 46.7166C51.398 46.7851 51.1164 46.7564 50.8697 46.6128L48.5343 45.2645C48.0399 44.979 47.8705 44.3469 48.156 43.8525C48.4414 43.3581 49.0736 43.1887 49.568 43.4741L51.9034 44.8225C52.3978 45.1079 52.5672 45.7401 52.2817 46.2345C52.1385 46.4825 51.909 46.6482 51.6535 46.7166Z" fill="#050505"/>
<path d="M30.4816 52.389C30.226 52.4575 29.9445 52.4288 29.6978 52.2852C29.2033 51.9998 29.034 51.3676 29.3194 50.8732L30.6678 48.5378C30.9532 48.0434 31.5854 47.874 32.0798 48.1595C32.5742 48.4449 32.7436 49.0771 32.4581 49.5715L31.1098 51.9069C30.9666 52.1549 30.7371 52.3206 30.4816 52.389Z" fill="#050505"/>
<path d="M25.864 42.2793L23.2596 42.9772C22.7086 43.1248 22.1416 42.7975 21.994 42.2465C21.8464 41.6955 22.1737 41.1286 22.7247 40.9809L25.3291 40.2831C25.8801 40.1354 26.4471 40.4628 26.5947 41.0138C26.7423 41.5647 26.415 42.1317 25.864 42.2793Z" fill="#050505"/>
<path d="M27.1418 32.5644C26.8863 32.6329 26.6047 32.6042 26.358 32.4606L24.0226 31.1123C23.5282 30.8268 23.3588 30.1947 23.6442 29.7003C23.9297 29.2058 24.5618 29.0365 25.0563 29.3219L27.3917 30.6703C27.8861 30.9557 28.0555 31.5879 27.77 32.0823C27.6251 32.3293 27.3973 32.4959 27.1418 32.5644Z" fill="#050505"/>
<path d="M45.1647 48.8759L45.6104 50.5394C45.9527 51.817 45.1831 53.1501 43.9055 53.4924L40.5784 54.3839C39.4605 54.6835 38.0213 54.1562 37.522 52.2931L37.1797 51.0155L45.1647 48.8759Z" fill="#050505"/>
<path d="M41.8927 29.1557C39.2358 27.9705 36.1758 28.0488 33.5282 29.4C30.1977 31.077 28.1066 34.7183 28.3196 38.4411C28.5443 42.2606 30.8646 45.4902 34.3542 46.9086C35.2963 47.2838 36.0844 48.0426 36.5524 49.044L36.556 49.0573C36.579 49.0369 36.619 49.0262 36.6456 49.0191L44.6306 46.8795C44.6572 46.8724 44.6705 46.8688 44.7007 46.875L44.6971 46.8617C44.6124 45.8003 44.9617 44.7082 45.6874 43.7436C47.4586 41.3576 48.0497 38.3465 47.2794 35.4719C46.5234 32.6505 44.5664 30.3507 41.8927 29.1557ZM43.1325 37.2962C42.5869 37.4424 42.0131 37.1112 41.8669 36.5655C41.3249 34.5427 39.2494 33.3444 37.2265 33.8864C36.6809 34.0326 36.1072 33.7014 35.9609 33.1557C35.8147 32.6101 36.146 32.0363 36.6916 31.8901C39.8058 31.0557 43.0288 32.9165 43.8632 36.0306C44.0094 36.5763 43.6782 37.15 43.1325 37.2962Z" fill="#050505"/>
<path d="M36.5527 49.0439L36.6459 49.019C36.6193 49.0261 36.5794 49.0368 36.5563 49.0573L36.5527 49.0439Z" fill="#050505"/>
<path d="M44.6974 46.8615L44.701 46.8748C44.6708 46.8686 44.6575 46.8722 44.6309 46.8793L44.6974 46.8615Z" fill="#050505"/>
</g>
<defs>
<linearGradient id="paint0_linear_5602_239" x1="0" y1="47.0468" x2="62" y2="47.0468" gradientUnits="userSpaceOnUse">
<stop stop-color="#A6BA26"/>
<stop offset="1" stop-color="#FAFFDB"/>
</linearGradient>
<clipPath id="clip0_5602_239">
<rect width="33.0667" height="33.0667" fill="white" transform="translate(17.7129 26.2773) rotate(-15)"/>
</clipPath>
</defs>
</svg>
