<svg width="323" height="79" viewBox="0 0 323 79" fill="none" xmlns="http://www.w3.org/2000/svg">
<g clip-path="url(#clip0_3790_1113)">
<path d="M395.247 0.0996094V2.04395H174.402L174.373 2.07324L104.673 71.5156H16.0381V69.5723H103.879L103.908 69.543L173.609 0.0996094H395.247Z" fill="#D3ED31" stroke="#050505" stroke-width="0.2"/>
<path d="M223.53 10.1035L180.141 53.2549H137.55L180.94 10.1035H223.53ZM181.625 11.9971L142.337 51.2197L142.166 51.3906H179.346L179.375 51.3613L218.663 12.1387L218.834 11.9678H181.654L181.625 11.9971Z" fill="#D3ED31" stroke="#050505" stroke-width="0.2"/>
<path d="M273.257 10.1035L229.946 53.2549H187.356L230.668 10.1035H273.257ZM231.511 11.9971L192.224 51.2197L192.053 51.3906H229.232L229.262 51.3613L268.55 12.1387L268.721 11.9678H231.54L231.511 11.9971Z" fill="#D3ED31" stroke="#050505" stroke-width="0.2"/>
<path d="M323.144 10.1035L279.833 53.2549H237.243L280.555 10.1035H323.144ZM281.398 11.9971L242.03 51.2197L241.859 51.3906H279.039L279.068 51.3613L318.437 12.1387L318.607 11.9678H281.428L281.398 11.9971Z" fill="#D3ED31" stroke="#050505" stroke-width="0.2"/>
<path d="M372.95 10.1035L329.64 53.2549H287.05L330.361 10.1035H372.95ZM331.205 11.9971L291.837 51.2197L291.666 51.3906H328.846L328.875 51.3613L368.243 12.1387L368.414 11.9678H331.234L331.205 11.9971Z" fill="#D3ED31" stroke="#050505" stroke-width="0.2"/>
<path d="M8.52734 62.1885C13.029 62.1887 16.7174 65.7241 16.9434 70.1533L16.9541 70.584C16.8746 75.1344 13.0936 78.9002 8.52734 78.9004C3.87984 78.9004 0.0996094 75.1328 0.0996094 70.584C0.0998077 65.9553 3.88057 62.1885 8.52734 62.1885ZM8.52734 64.1328C4.96618 64.1328 2.05196 67.0351 2.05176 70.584C2.05176 74.133 4.96606 77.0361 8.52734 77.0361C12.0884 77.0359 15.002 74.1329 15.002 70.584C15.0018 67.0352 12.0883 64.133 8.52734 64.1328Z" fill="#D3ED31" stroke="#050505" stroke-width="0.2"/>
</g>
<defs>
<clipPath id="clip0_3790_1113">
<rect width="323" height="79" fill="white"/>
</clipPath>
</defs>
</svg>
