<svg width="30" height="30" viewBox="0 0 30 30" fill="none" xmlns="http://www.w3.org/2000/svg">
<path d="M14.9773 6.35211C6.88147 6.35211 0.529344 13.8252 0.280241 14.1989C-0.0934137 14.6971 -0.0934137 15.3198 0.280241 15.818C0.529344 16.1917 6.88147 23.6648 14.9773 23.6648C23.0732 23.6648 29.3008 16.1917 29.6744 15.818C30.0481 15.3198 30.0481 14.6971 29.6744 14.1989C29.3008 13.8252 23.0732 6.35211 14.9773 6.35211ZM14.9773 20.9246C11.739 20.9246 8.99885 18.1845 8.99885 14.9462C8.99885 11.5833 11.739 8.96769 14.9773 8.96769C18.3402 8.96769 20.9558 11.5833 20.9558 14.9462C20.9558 18.1845 18.3402 20.9246 14.9773 20.9246Z" fill="#D3ED31"/>
<path d="M14.9774 12.0815H14.8529C14.9774 12.3306 14.9774 12.7042 14.9774 12.9533C14.9774 14.448 13.7319 15.6935 12.2373 15.818C12.611 17.0635 13.8565 17.8109 14.9774 17.8109C16.5966 17.8109 17.8421 16.5653 17.8421 14.9462C17.8421 13.327 16.5966 12.0815 14.9774 12.0815Z" fill="#D3ED31"/>
<path opacity="0.25" d="M1.27579 21.921C0.52848 21.921 0.0302734 22.4192 0.0302734 23.1665L0.0302734 28.6468C0.0302734 29.3941 0.52848 29.8923 1.27579 29.8923H6.75606C7.50337 29.8923 8.00157 29.3941 8.00157 28.6468C8.00157 27.8995 7.50337 27.4013 6.75606 27.4013H2.5213L2.5213 23.1665C2.5213 22.4192 2.0231 21.921 1.27579 21.921Z" fill="#D3ED31"/>
<path opacity="0.25" d="M1.27579 7.9713C2.0231 7.9713 2.5213 7.47309 2.5213 6.72578L2.5213 2.49103L6.75606 2.49103C7.50337 2.49103 8.00157 1.99282 8.00157 1.24552C8.00157 0.498206 7.50337 0 6.75606 0L1.27579 0C0.52848 0 0.0302734 0.498206 0.0302734 1.24552L0.0302734 6.72578C0.0302734 7.47309 0.52848 7.9713 1.27579 7.9713Z" fill="#D3ED31"/>
<path opacity="0.25" d="M28.677 7.9713C29.4243 7.9713 29.9225 7.47309 29.9225 6.72578V1.24552C29.9225 0.498206 29.4243 0 28.677 0L23.1967 0C22.4494 0 21.9512 0.498206 21.9512 1.24552C21.9512 1.99282 22.4494 2.49103 23.1967 2.49103L27.4314 2.49103V6.72578C27.4314 7.47309 27.9296 7.9713 28.677 7.9713Z" fill="#D3ED31"/>
<path opacity="0.25" d="M28.677 29.8923C29.4243 29.8923 29.9225 29.3941 29.9225 28.6468V23.1665C29.9225 22.4192 29.4243 21.921 28.677 21.921C27.9296 21.921 27.4314 22.4192 27.4314 23.1665V27.4013H23.1967C22.4494 27.4013 21.9512 27.8995 21.9512 28.6468C21.9512 29.3941 22.4494 29.8923 23.1967 29.8923H28.677Z" fill="#D3ED31"/>
</svg>
