<svg width="34" height="34" viewBox="0 0 34 34" fill="none" xmlns="http://www.w3.org/2000/svg">
<g clip-path="url(#clip0_3514_571)">
<path d="M16.794 7.90556C11.8922 7.90556 7.9043 11.8935 7.9043 16.7953C7.9043 21.6971 11.8922 25.685 16.794 25.685C21.6958 25.685 25.6837 21.6971 25.6837 16.7953C25.6837 11.8935 21.6958 7.90556 16.794 7.90556ZM19.9655 15.7272L16.7289 19.2043C16.5469 19.3999 16.2933 19.513 16.0262 19.5178C16.0204 19.5179 16.0145 19.5179 16.0086 19.5179C15.7478 19.5179 15.4974 19.4144 15.3127 19.2297L13.647 17.564C13.2627 17.1797 13.2627 16.5566 13.647 16.1723C14.0314 15.788 14.6545 15.788 15.0388 16.1723L15.9832 17.1167L18.5249 14.3862C18.8953 13.9884 19.5179 13.966 19.9158 14.3363C20.3135 14.7067 20.3358 15.3294 19.9655 15.7272Z" fill="#D3ED31"/>
<path opacity="0.25" d="M32.6065 15.8112H31.2984C31.0651 12.2988 29.5865 9.02872 27.0742 6.51638C24.5619 4.00411 21.2918 2.52546 17.7794 2.29223V0.9841C17.7794 0.440614 17.3388 0 16.7953 0C16.2518 0 15.8112 0.440614 15.8112 0.9841V2.29223C12.2988 2.52553 9.02872 4.00417 6.51638 6.51645C4.00411 9.02872 2.52546 12.2988 2.29223 15.8112H0.9841C0.440614 15.8112 0 16.2518 0 16.7953C0 17.3388 0.440614 17.7794 0.9841 17.7794H2.29223C2.52553 21.2918 4.00411 24.5619 6.51645 27.0742C9.02879 29.5865 12.2989 31.0652 15.8113 31.2984V32.6065C15.8113 33.15 16.2519 33.5906 16.7954 33.5906C17.3389 33.5906 17.7795 33.15 17.7795 32.6065L17.7795 31.2984C21.2919 31.0651 24.562 29.5864 27.0743 27.0742C29.5866 24.5619 31.0652 21.2918 31.2985 17.7794L32.6065 17.7794C33.15 17.7794 33.5906 17.3388 33.5906 16.7953C33.5906 16.2518 33.15 15.8112 32.6065 15.8112ZM17.7794 29.3253V28.089C17.7794 27.5455 17.3388 27.1049 16.7953 27.1049C16.2518 27.1049 15.8112 27.5455 15.8112 28.089V29.3253C9.66399 28.8469 4.74369 23.9266 4.26535 17.7794H5.50158C6.04506 17.7794 6.48568 17.3388 6.48568 16.7953C6.48568 16.2518 6.04506 15.8112 5.50158 15.8112H4.26535C4.74369 9.66399 9.66399 4.74369 15.8112 4.26535V5.50164C15.8112 6.04513 16.2518 6.48574 16.7953 6.48574C17.3388 6.48574 17.7794 6.04513 17.7794 5.50164V4.26535C23.9266 4.74369 28.8469 9.66399 29.3253 15.8112H28.089C27.5456 15.8112 27.1049 16.2518 27.1049 16.7953C27.1049 17.3388 27.5456 17.7794 28.089 17.7794H29.3253C28.8469 23.9266 23.9266 28.8469 17.7794 29.3253Z" fill="#D3ED31"/>
</g>
<defs>
<clipPath id="clip0_3514_571">
<rect width="33.5906" height="33.5906" fill="white"/>
</clipPath>
</defs>
</svg>
